<svg width="48" height="49" viewBox="0 0 48 49" fill="none" xmlns="http://www.w3.org/2000/svg">
<path d="M16.441 13.5C17.5007 13.5 18.4543 13.5918 19.3287 13.7789C20.1977 13.9642 20.939 14.2701 21.5652 14.6929C22.1823 15.1157 22.6645 15.6771 23.0117 16.3824C23.3482 17.0787 23.5155 17.9495 23.5155 18.9787C23.5155 20.0942 23.2636 21.0262 22.7581 21.7693C22.2489 22.5142 21.4986 23.1241 20.4982 23.5955C21.8602 23.9895 22.8696 24.6786 23.5389 25.6574C24.2118 26.6452 24.5411 27.8273 24.5411 29.2127C24.5411 30.3372 24.327 31.3034 23.897 32.1149C23.4826 32.9142 22.8814 33.6018 22.1445 34.1192C21.3812 34.6507 20.5286 35.0408 19.6274 35.2707C18.6825 35.5188 17.7094 35.6433 16.7324 35.6414H6V13.5H16.441ZM15.8094 22.4458C16.6731 22.4458 17.3891 22.2407 17.9541 21.8251C18.5155 21.4148 18.7872 20.7383 18.7872 19.8117C18.7872 19.2971 18.6954 18.8725 18.5155 18.5397C18.3402 18.2194 18.0807 17.9532 17.7652 17.7696C17.4349 17.5737 17.0704 17.4424 16.691 17.3827C16.2776 17.3056 15.8576 17.2689 15.437 17.273H10.8759V22.4458H15.8094ZM16.0811 31.872C16.5615 31.872 17.0185 31.8306 17.4485 31.7334C17.8821 31.6399 18.2672 31.4887 18.5946 31.2638C18.9221 31.0479 19.192 30.7546 19.3863 30.3804C19.5824 30.0098 19.6778 29.5258 19.6778 28.9446C19.6778 27.8039 19.3557 26.9924 18.7188 26.5013C18.0801 26.0155 17.2236 25.7744 16.1747 25.7744H10.8759V31.8738H16.0811V31.872ZM31.4915 31.7982C32.1519 32.4423 33.1037 32.7662 34.3415 32.7662C35.2285 32.7662 35.995 32.5413 36.6409 32.0951C37.2779 31.6471 37.6665 31.1685 37.8158 30.6737H41.6932C41.0707 32.6025 40.1261 33.9807 38.8342 34.8101C37.5586 35.6432 36.0058 36.057 34.1922 36.057C32.9291 36.057 31.792 35.8537 30.7736 35.4506C29.7962 35.07 28.9128 34.4819 28.1845 33.727C27.4683 32.9544 26.9145 32.0458 26.5562 31.0551C26.1624 29.9596 25.9674 28.8025 25.9805 27.6384C25.9805 26.4401 26.1802 25.3192 26.5724 24.2846C26.9448 23.2846 27.5165 22.3706 28.2529 21.5983C28.9816 20.8427 29.8452 20.2471 30.851 19.8099C31.9086 19.3651 33.0467 19.1434 34.194 19.1586C35.5506 19.1586 36.7363 19.4213 37.7547 19.9503C38.7422 20.4552 39.5985 21.1834 40.2556 22.0769C40.9087 22.964 41.3747 23.9805 41.6644 25.1194C41.9541 26.2566 42.0548 27.4441 41.9721 28.6873H30.4012C30.403 29.954 30.8294 31.1541 31.4915 31.7982ZM36.551 23.376C36.0274 22.7966 35.1422 22.4836 34.059 22.4836C33.3555 22.4836 32.7744 22.6005 32.3066 22.8416C31.8789 23.0577 31.4994 23.3582 31.1911 23.725C30.9203 24.0581 30.7196 24.4424 30.6009 24.855C30.4971 25.1989 30.4302 25.553 30.4012 25.9111H37.5657C37.4614 24.7884 37.0764 23.9589 36.551 23.376ZM29.5016 14.9862H38.478V17.1722H29.5016V14.9862Z" fill="#E3E4E6" fill-opacity="0.55"/>
</svg>
